<svg id="Icon_feather-shopping-cart" data-name="Icon feather-shopping-cart" xmlns="http://www.w3.org/2000/svg" width="26.309" height="25.249" viewBox="0 0 26.309 25.249">
  <path id="Caminho_4" data-name="Caminho 4" d="M14.119,31.059A1.059,1.059,0,1,1,13.059,30,1.059,1.059,0,0,1,14.119,31.059Z" transform="translate(-3.084 -8.37)" fill="none" stroke="#fff" stroke-linecap="round" stroke-linejoin="round" stroke-width="3"/>
  <path id="Caminho_5" data-name="Caminho 5" d="M30.619,31.059A1.059,1.059,0,1,1,29.559,30,1.059,1.059,0,0,1,30.619,31.059Z" transform="translate(-7.929 -8.37)" fill="none" stroke="#fff" stroke-linecap="round" stroke-linejoin="round" stroke-width="3"/>
  <path id="Caminho_6" data-name="Caminho 6" d="M1.5,1.5H5.738L8.577,15.687A2.119,2.119,0,0,0,10.7,17.392h10.3a2.119,2.119,0,0,0,2.119-1.706l1.7-8.889H6.8" fill="none" stroke="#fff" stroke-linecap="round" stroke-linejoin="round" stroke-width="3"/>
</svg>