<svg xmlns="http://www.w3.org/2000/svg" width="18" height="18" viewBox="0 0 18 18">
  <path id="Path" d="M11.338,1.417v8.5a1.417,1.417,0,0,1-1.417,1.417h-8.5A1.417,1.417,0,0,1,0,9.921v-8.5A1.417,1.417,0,0,1,1.417,0h8.5A1.417,1.417,0,0,1,11.338,1.417Z" transform="translate(5.162 4.5)" fill="#cf9775"/>
  <path id="Path-2" data-name="Path" d="M15,13.125A1.875,1.875,0,0,1,13.125,15H1.875A1.875,1.875,0,0,1,0,13.125V1.875A1.875,1.875,0,0,1,1.875,0h11.25A1.875,1.875,0,0,1,15,1.875Z" transform="translate(1.5 1.5)" fill="none" stroke="#2d140d" stroke-miterlimit="10" stroke-width="3"/>
</svg>